<?xml version="1.0" encoding="UTF-8"?>
<!DOCTYPE svg PUBLIC "-//W3C//DTD SVG 1.1//EN" "http://www.w3.org/Graphics/SVG/1.1/DTD/svg11.dtd">
<svg xmlns="http://www.w3.org/2000/svg" version="1.1" width="128px" height="128px" style="shape-rendering:geometricPrecision; text-rendering:geometricPrecision; image-rendering:optimizeQuality; fill-rule:evenodd; clip-rule:evenodd" xmlns:xlink="http://www.w3.org/1999/xlink">
<g><path style="opacity:1" fill="#c2c2c2" d="M 36.5,1.5 C 36.8417,0.661754 37.5084,0.32842 38.5,0.5C 44.3015,2.90101 49.9682,5.56767 55.5,8.5C 57.4486,7.29349 58.9486,5.62682 60,3.5C 60.4922,4.54896 60.3256,5.54896 59.5,6.5C 64.8431,7.50305 70.1764,8.50305 75.5,9.5C 75.8333,9.5 76.1667,9.5 76.5,9.5C 79.5517,10.9713 82.5517,12.638 85.5,14.5C 86.1217,15.6266 86.955,16.6266 88,17.5C 92.1778,15.6013 96.6778,14.9347 101.5,15.5C 105.396,15.6122 109.063,16.6122 112.5,18.5C 110.198,25.9124 107.031,32.9124 103,39.5C 102.186,44.0204 102.353,48.3537 103.5,52.5C 102.194,53.4674 101.527,54.8007 101.5,56.5C 101.045,61.6517 100.711,66.8184 100.5,72C 100.33,76.8057 100.997,81.4724 102.5,86C 102.333,86.5 102.167,87 102,87.5C 101.333,86.1667 100.667,84.8333 100,83.5C 100.995,89.4903 102.329,95.4903 104,101.5C 104.499,106.155 104.666,110.821 104.5,115.5C 103.105,112.858 101.605,110.191 100,107.5C 99.8198,110.956 99.1532,114.289 98,117.5C 97.0266,115.608 96.3599,113.608 96,111.5C 95.3333,113.5 94.6667,115.5 94,117.5C 94.9688,108.092 94.3022,98.7586 92,89.5C 91.3333,90.8333 90.6667,92.1667 90,93.5C 89.8333,92.6667 89.6667,91.8333 89.5,91C 90.9219,86.2361 91.4219,81.4027 91,76.5C 89.6784,81.4279 88.6784,86.4279 88,91.5C 87.0138,94.8057 85.5138,97.8057 83.5,100.5C 82.1957,102.982 80.1957,104.149 77.5,104C 81.8846,96.4659 83.8846,88.2992 83.5,79.5C 84.0849,74.5394 85.0849,69.5394 86.5,64.5C 86.2962,59.9544 86.2962,55.2877 86.5,50.5C 86.5,49.1667 86.5,47.8333 86.5,46.5C 84.5956,30.2972 83.0956,29.9639 82,45.5C 77.6905,41.6989 74.8571,37.0322 73.5,31.5C 73.5,30.8333 73.1667,30.5 72.5,30.5C 72.477,28.0733 71.977,25.74 71,23.5C 69.6367,31.4295 69.1367,39.4295 69.5,47.5C 68.8333,47.5 68.1667,47.5 67.5,47.5C 66.6351,44.0289 65.4684,40.6956 64,37.5C 63.6411,40.5443 62.9745,40.8776 62,38.5C 61.6667,35.8333 61.3333,33.1667 61,30.5C 60.6667,33.5 60.3333,36.5 60,39.5C 58.0458,34.0174 57.0458,28.3507 57,22.5C 55.8723,27.1386 54.8723,31.8053 54,36.5C 53.6667,34.1667 53.3333,31.8333 53,29.5C 52.7216,30.4158 52.2216,31.0825 51.5,31.5C 48.7825,33.7312 46.7825,37.0646 45.5,41.5C 45.6716,42.4916 45.3382,43.1583 44.5,43.5C 43.5178,44.1408 42.5178,44.8075 41.5,45.5C 41.1667,45 40.8333,44.5 40.5,44C 41.5038,42.2017 42.0038,40.3684 42,38.5C 40,40.5 38,42.5 36,44.5C 35.6667,42.8333 35.3333,41.1667 35,39.5C 34.0881,43.7946 33.4215,48.1279 33,52.5C 32.6667,51.5 32.3333,50.5 32,49.5C 31.8333,50.1667 31.6667,50.8333 31.5,51.5C 31.6038,55.6179 31.9372,59.6179 32.5,63.5C 32.5688,66.0842 33.7355,68.0842 36,69.5C 36.6667,74.8333 36.6667,80.1667 36,85.5C 35.6667,84.1667 35.3333,82.8333 35,81.5C 33.6667,86.1667 32.3333,90.8333 31,95.5C 27.4423,99.7938 26.2756,99.4604 27.5,94.5C 29.4608,88.9307 29.7941,83.264 28.5,77.5C 26.5029,78.7474 24.5029,79.5808 22.5,80C 24.6515,77.5311 26.1515,74.6978 27,71.5C 28.1621,65.5551 28.6621,59.5551 28.5,53.5C 28.5,52.8333 28.5,52.1667 28.5,51.5C 28.1832,47.2984 28.5166,43.2984 29.5,39.5C 33.2423,38.1185 36.5757,35.9518 39.5,33C 38.0611,32.0094 37.0611,30.676 36.5,29C 38.3293,27.8867 39.1626,26.3867 39,24.5C 36.8943,27.1177 34.3943,29.1177 31.5,30.5C 31.5,29.8333 31.5,29.1667 31.5,28.5C 32.404,27.791 32.7373,26.791 32.5,25.5C 33.6737,24.4863 34.3404,23.153 34.5,21.5C 42.5385,15.9109 43.2052,9.24423 36.5,1.5 Z"/></g>
<g><path style="opacity:0.469" fill="#111111" d="M 38.5,0.5 C 38.5,0.166667 38.5,-0.166667 38.5,-0.5C 39.8333,-0.5 41.1667,-0.5 42.5,-0.5C 46.5395,1.9395 50.7061,4.27284 55,6.5C 57.3748,3.95597 59.8748,1.62263 62.5,-0.5C 65.1667,-0.5 67.8333,-0.5 70.5,-0.5C 69.0512,1.16441 67.0512,1.99775 64.5,2C 63.3128,3.01948 62.3128,4.18614 61.5,5.5C 66.3875,6.10713 71.0542,7.10713 75.5,8.5C 75.5,8.83333 75.5,9.16667 75.5,9.5C 70.1764,8.50305 64.8431,7.50305 59.5,6.5C 60.3256,5.54896 60.4922,4.54896 60,3.5C 58.9486,5.62682 57.4486,7.29349 55.5,8.5C 49.9682,5.56767 44.3015,2.90101 38.5,0.5 Z"/></g>
<g><path style="opacity:0.698" fill="#54595c" d="M 77.5,9.5 C 77.1667,9.5 76.8333,9.5 76.5,9.5C 76.1667,9.5 75.8333,9.5 75.5,9.5C 75.5,9.16667 75.5,8.83333 75.5,8.5C 78,4.08744 81.6667,2.75411 86.5,4.5C 82.7036,4.89455 79.7036,6.56122 77.5,9.5 Z"/></g>
<g><path style="opacity:1" fill="#b4818a" d="M 36.5,1.5 C 43.2052,9.24423 42.5385,15.9109 34.5,21.5C 33.5093,15.021 33.176,8.3543 33.5,1.5C 34.5,1.5 35.5,1.5 36.5,1.5 Z"/></g>
<g><path style="opacity:0.456" fill="#0c0c0c" d="M 76.5,9.5 C 76.8333,9.5 77.1667,9.5 77.5,9.5C 81.5621,10.3591 85.5621,11.5258 89.5,13C 97.3943,12.8683 105.061,14.0349 112.5,16.5C 113.631,18.0745 113.798,19.7412 113,21.5C 110.258,28.6464 107.258,35.6464 104,42.5C 104.348,45.9356 104.181,49.2689 103.5,52.5C 102.353,48.3537 102.186,44.0204 103,39.5C 107.031,32.9124 110.198,25.9124 112.5,18.5C 109.063,16.6122 105.396,15.6122 101.5,15.5C 96.3595,14.5119 91.0262,14.1786 85.5,14.5C 82.5517,12.638 79.5517,10.9713 76.5,9.5 Z"/></g>
<g><path style="opacity:1" fill="#af9fa2" d="M 33.5,-0.5 C 35.1667,-0.5 36.8333,-0.5 38.5,-0.5C 38.5,-0.166667 38.5,0.166667 38.5,0.5C 37.5084,0.32842 36.8417,0.661754 36.5,1.5C 35.5,1.5 34.5,1.5 33.5,1.5C 33.176,8.3543 33.5093,15.021 34.5,21.5C 34.3404,23.153 33.6737,24.4863 32.5,25.5C 31.5233,22.7131 31.19,19.7131 31.5,16.5C 31.4399,10.7051 32.1066,5.03843 33.5,-0.5 Z"/></g>
<g><path style="opacity:1" fill="#686969" d="M 55.5,9.5 C 56.8024,12.1066 56.6357,14.7732 55,17.5C 53.8129,15.9556 53.4795,14.2889 54,12.5C 54.3333,12.8333 54.6667,13.1667 55,13.5C 55.49,12.2068 55.6567,10.8734 55.5,9.5 Z"/></g>
<g><path style="opacity:1" fill="#858686" d="M 85.5,14.5 C 91.0262,14.1786 96.3595,14.5119 101.5,15.5C 96.6778,14.9347 92.1778,15.6013 88,17.5C 86.955,16.6266 86.1217,15.6266 85.5,14.5 Z"/></g>
<g><path style="opacity:0.366" fill="#070707" d="M 31.5,-0.5 C 32.1667,-0.5 32.8333,-0.5 33.5,-0.5C 32.1066,5.03843 31.4399,10.7051 31.5,16.5C 30.2092,20.3989 30.2092,24.3989 31.5,28.5C 31.5,29.1667 31.5,29.8333 31.5,30.5C 29.8452,31.9302 27.8452,32.7635 25.5,33C 26.5634,34.1882 27.8967,34.6882 29.5,34.5C 29.5,36.1667 29.5,37.8333 29.5,39.5C 28.5166,43.2984 28.1832,47.2984 28.5,51.5C 28.1667,51.5 27.8333,51.5 27.5,51.5C 27.6659,46.4889 27.4993,41.4889 27,36.5C 23.8501,34.8715 23.0168,32.5382 24.5,29.5C 25.8415,31.0049 27.5082,31.6715 29.5,31.5C 29.5047,20.7875 30.1714,10.1209 31.5,-0.5 Z"/></g>
<g><path style="opacity:1" fill="#686868" d="M 31.5,16.5 C 31.19,19.7131 31.5233,22.7131 32.5,25.5C 32.7373,26.791 32.404,27.791 31.5,28.5C 30.2092,24.3989 30.2092,20.3989 31.5,16.5 Z"/></g>
<g><path style="opacity:1" fill="#b6848d" d="M 104.5,18.5 C 106.5,18.5 108.5,18.5 110.5,18.5C 108.994,25.8467 105.661,32.18 100.5,37.5C 99.1176,33.8464 97.4509,30.3464 95.5,27C 95.6448,26.228 95.9781,25.5613 96.5,25C 95.6919,24.6924 95.0253,24.1924 94.5,23.5C 97.6572,21.2546 100.991,19.5879 104.5,18.5 Z"/></g>
<g><path style="opacity:0.125" fill="#888888" d="M 16.5,24.5 C 17.5735,25.2506 17.7401,26.2506 17,27.5C 16.5172,26.552 16.3505,25.552 16.5,24.5 Z"/></g>
<g><path style="opacity:1" fill="#776b68" d="M 72.5,30.5 C 71.7784,30.0825 71.2784,29.4158 71,28.5C 70.8279,35.0133 70.3279,41.3466 69.5,47.5C 69.1367,39.4295 69.6367,31.4295 71,23.5C 71.977,25.74 72.477,28.0733 72.5,30.5 Z"/></g>
<g><path style="opacity:1" fill="#a1a2a2" d="M 29.5,39.5 C 29.5,37.8333 29.5,36.1667 29.5,34.5C 27.8967,34.6882 26.5634,34.1882 25.5,33C 27.8452,32.7635 29.8452,31.9302 31.5,30.5C 34.3943,29.1177 36.8943,27.1177 39,24.5C 39.1626,26.3867 38.3293,27.8867 36.5,29C 37.0611,30.676 38.0611,32.0094 39.5,33C 36.5757,35.9518 33.2423,38.1185 29.5,39.5 Z"/></g>
<g><path style="opacity:1" fill="#786662" d="M 51.5,31.5 C 51.8168,35.7016 51.4834,39.7016 50.5,43.5C 50.5,41.8333 50.5,40.1667 50.5,38.5C 48.3364,38.7215 46.6697,39.7215 45.5,41.5C 46.7825,37.0646 48.7825,33.7312 51.5,31.5 Z"/></g>
<g><path style="opacity:1" fill="#8c8381" d="M 73.5,31.5 C 74.8571,37.0322 77.6905,41.6989 82,45.5C 83.0956,29.9639 84.5956,30.2972 86.5,46.5C 85.7321,47.2625 85.2321,48.2625 85,49.5C 83.3775,48.9011 81.8775,48.2344 80.5,47.5C 80.6277,45.8708 79.6277,44.5375 77.5,43.5C 75.6053,42.027 73.9387,40.3603 72.5,38.5C 72.9175,37.7784 73.5842,37.2784 74.5,37C 72.7088,35.2103 72.3754,33.377 73.5,31.5 Z"/></g>
<g><path style="opacity:1" fill="#f4e0d2" d="M 50.5,43.5 C 50.5,44.1667 50.5,44.8333 50.5,45.5C 47.9179,45.9746 45.9179,45.3079 44.5,43.5C 45.3382,43.1583 45.6716,42.4916 45.5,41.5C 46.6697,39.7215 48.3364,38.7215 50.5,38.5C 50.5,40.1667 50.5,41.8333 50.5,43.5 Z"/></g>
<g><path style="opacity:1" fill="#8e8887" d="M 67.5,47.5 C 66.8333,47.5 66.1667,47.5 65.5,47.5C 63.4357,47.313 61.4357,46.813 59.5,46C 56.8822,37.2285 55.5489,37.3952 55.5,46.5C 54.5,46.5 53.5,46.5 52.5,46.5C 52.1583,45.6618 51.4916,45.3284 50.5,45.5C 50.5,44.8333 50.5,44.1667 50.5,43.5C 51.4834,39.7016 51.8168,35.7016 51.5,31.5C 52.2216,31.0825 52.7216,30.4158 53,29.5C 53.3333,31.8333 53.6667,34.1667 54,36.5C 54.8723,31.8053 55.8723,27.1386 57,22.5C 57.0458,28.3507 58.0458,34.0174 60,39.5C 60.3333,36.5 60.6667,33.5 61,30.5C 61.3333,33.1667 61.6667,35.8333 62,38.5C 62.9745,40.8776 63.6411,40.5443 64,37.5C 65.4684,40.6956 66.6351,44.0289 67.5,47.5 Z"/></g>
<g><path style="opacity:1" fill="#fcecdd" d="M 72.5,38.5 C 73.9387,40.3603 75.6053,42.027 77.5,43.5C 77.4142,44.4959 77.7476,45.3292 78.5,46C 76.1902,46.4966 73.8568,46.6633 71.5,46.5C 71.1936,43.6146 71.5269,40.9479 72.5,38.5 Z"/></g>
<g><path style="opacity:0.553" fill="#3a5969" d="M 125.5,38.5 C 122.167,38.5 120.5,40.1667 120.5,43.5C 120.167,43.5 119.833,43.5 119.5,43.5C 119.305,38.6694 121.305,37.0027 125.5,38.5 Z"/></g>
<g><path style="opacity:1" fill="#e6f0f2" d="M 125.5,38.5 C 125.833,38.5 126.167,38.5 126.5,38.5C 126.5,40.1667 126.5,41.8333 126.5,43.5C 124.5,43.5 122.5,43.5 120.5,43.5C 120.5,40.1667 122.167,38.5 125.5,38.5 Z"/></g>
<g><path style="opacity:1" fill="#928885" d="M 44.5,43.5 C 45.9179,45.3079 47.9179,45.9746 50.5,45.5C 46.7016,46.4834 42.7016,46.8168 38.5,46.5C 35.821,46.5246 34.4877,47.858 34.5,50.5C 34.2572,53.8826 34.9239,57.0492 36.5,60C 35.2559,60.4561 34.4226,59.9561 34,58.5C 32.7308,59.9047 32.2308,61.5714 32.5,63.5C 31.9372,59.6179 31.6038,55.6179 31.5,51.5C 31.6667,50.8333 31.8333,50.1667 32,49.5C 32.3333,50.5 32.6667,51.5 33,52.5C 33.4215,48.1279 34.0881,43.7946 35,39.5C 35.3333,41.1667 35.6667,42.8333 36,44.5C 38,42.5 40,40.5 42,38.5C 42.0038,40.3684 41.5038,42.2017 40.5,44C 40.8333,44.5 41.1667,45 41.5,45.5C 42.5178,44.8075 43.5178,44.1408 44.5,43.5 Z"/></g>
<g><path style="opacity:1" fill="#d3bcb0" d="M 72.5,30.5 C 73.1667,30.5 73.5,30.8333 73.5,31.5C 72.3754,33.377 72.7088,35.2103 74.5,37C 73.5842,37.2784 72.9175,37.7784 72.5,38.5C 71.5269,40.9479 71.1936,43.6146 71.5,46.5C 73.8568,46.6633 76.1902,46.4966 78.5,46C 77.7476,45.3292 77.4142,44.4959 77.5,43.5C 79.6277,44.5375 80.6277,45.8708 80.5,47.5C 77.3019,46.9644 74.6353,47.631 72.5,49.5C 70.0479,48.9346 67.7146,48.2679 65.5,47.5C 66.1667,47.5 66.8333,47.5 67.5,47.5C 68.1667,47.5 68.8333,47.5 69.5,47.5C 70.3279,41.3466 70.8279,35.0133 71,28.5C 71.2784,29.4158 71.7784,30.0825 72.5,30.5 Z"/></g>
<g><path style="opacity:1" fill="#fbebdc" d="M 65.5,47.5 C 67.7146,48.2679 70.0479,48.9346 72.5,49.5C 76.6732,50.3576 81.0065,51.0242 85.5,51.5C 85.5,51.8333 85.5,52.1667 85.5,52.5C 81.4836,51.8999 77.9836,52.8999 75,55.5C 74.4484,61.454 77.2817,64.454 83.5,64.5C 83.0472,65.4584 82.3805,66.2917 81.5,67C 83.1922,68.4007 83.8588,70.2341 83.5,72.5C 82.209,72.2627 81.209,72.596 80.5,73.5C 76.5654,74.7537 72.5654,75.7537 68.5,76.5C 64.8333,76.5 61.1667,76.5 57.5,76.5C 53.1369,75.6274 48.8035,74.6274 44.5,73.5C 43.7095,72.5987 42.7095,71.9321 41.5,71.5C 41.1667,71.5 40.8333,71.5 40.5,71.5C 37.4569,69.4567 35.1236,66.7901 33.5,63.5C 36.8905,62.859 40.2239,61.6923 43.5,60C 45.3582,52.6825 42.3582,49.5158 34.5,50.5C 34.4877,47.858 35.821,46.5246 38.5,46.5C 38.5,47.1667 38.5,47.8333 38.5,48.5C 40.6413,49.1633 42.9746,49.4966 45.5,49.5C 48.2695,49.4714 50.6028,48.8048 52.5,47.5C 52.5,47.1667 52.5,46.8333 52.5,46.5C 53.5,46.5 54.5,46.5 55.5,46.5C 55.5489,37.3952 56.8822,37.2285 59.5,46C 61.4357,46.813 63.4357,47.313 65.5,47.5 Z"/></g>
<g><path style="opacity:1" fill="#668093" d="M 126.5,38.5 C 126.833,38.5 127.167,38.5 127.5,38.5C 127.5,40.5 127.5,42.5 127.5,44.5C 125.167,45.8333 122.833,45.8333 120.5,44.5C 120.5,44.1667 120.5,43.8333 120.5,43.5C 122.5,43.5 124.5,43.5 126.5,43.5C 126.5,41.8333 126.5,40.1667 126.5,38.5 Z"/></g>
<g><path style="opacity:0.796" fill="#6b899c" d="M 119.5,43.5 C 119.5,44.1667 119.833,44.5 120.5,44.5C 119.952,47.0838 118.285,48.0838 115.5,47.5C 115.167,44.5 116.5,43.1667 119.5,43.5 Z"/></g>
<g><path style="opacity:0.11" fill="#868686" d="M 15.5,46.5 C 16.5735,47.2506 16.7401,48.2506 16,49.5C 15.5172,48.552 15.3505,47.552 15.5,46.5 Z"/></g>
<g><path style="opacity:1" fill="#362826" d="M 50.5,45.5 C 51.4916,45.3284 52.1583,45.6618 52.5,46.5C 52.5,46.8333 52.5,47.1667 52.5,47.5C 47.9296,48.441 43.263,48.7744 38.5,48.5C 38.5,47.8333 38.5,47.1667 38.5,46.5C 42.7016,46.8168 46.7016,46.4834 50.5,45.5 Z"/></g>
<g><path style="opacity:1" fill="#877871" d="M 52.5,47.5 C 50.6028,48.8048 48.2695,49.4714 45.5,49.5C 42.9746,49.4966 40.6413,49.1633 38.5,48.5C 43.263,48.7744 47.9296,48.441 52.5,47.5 Z"/></g>
<g><path style="opacity:0.651" fill="#2c3b47" d="M 110.5,49.5 C 111.386,48.2241 112.386,48.2241 113.5,49.5C 112.575,50.5624 111.575,50.5624 110.5,49.5 Z"/></g>
<g><path style="opacity:1" fill="#322623" d="M 86.5,46.5 C 86.5,47.8333 86.5,49.1667 86.5,50.5C 85.8333,50.5 85.5,50.8333 85.5,51.5C 81.0065,51.0242 76.6732,50.3576 72.5,49.5C 74.6353,47.631 77.3019,46.9644 80.5,47.5C 81.8775,48.2344 83.3775,48.9011 85,49.5C 85.2321,48.2625 85.7321,47.2625 86.5,46.5 Z"/></g>
<g><path style="opacity:1" fill="#f2beae" d="M 34.5,50.5 C 42.3582,49.5158 45.3582,52.6825 43.5,60C 40.2239,61.6923 36.8905,62.859 33.5,63.5C 33.1667,63.5 32.8333,63.5 32.5,63.5C 32.2308,61.5714 32.7308,59.9047 34,58.5C 34.4226,59.9561 35.2559,60.4561 36.5,60C 34.9239,57.0492 34.2572,53.8826 34.5,50.5 Z"/></g>
<g><path style="opacity:0.537" fill="#535759" d="M 103.5,52.5 C 104.64,53.8014 105.973,54.9681 107.5,56C 110.766,56.3342 113.766,56.5008 116.5,56.5C 115.098,58.1463 113.264,59.1463 111,59.5C 108.251,58.5432 105.751,57.2099 103.5,55.5C 103.565,55.0618 103.399,54.7284 103,54.5C 102.722,55.4158 102.222,56.0825 101.5,56.5C 101.527,54.8007 102.194,53.4674 103.5,52.5 Z"/></g>
<g><path style="opacity:0.852" fill="#575a5f" d="M 27.5,51.5 C 27.8333,51.5 28.1667,51.5 28.5,51.5C 28.5,52.1667 28.5,52.8333 28.5,53.5C 27.5,53.8333 26.8333,54.5 26.5,55.5C 24.4486,57.0376 22.782,56.7043 21.5,54.5C 22.2739,53.2888 23.1072,53.2888 24,54.5C 25.5185,53.8366 26.6851,52.8366 27.5,51.5 Z"/></g>
<g><path style="opacity:1" fill="#f5c2b0" d="M 85.5,52.5 C 85.6664,56.6742 84.9997,60.6742 83.5,64.5C 77.2817,64.454 74.4484,61.454 75,55.5C 77.9836,52.8999 81.4836,51.8999 85.5,52.5 Z"/></g>
<g><path style="opacity:1" fill="#e19f97" d="M 66.5,59.5 C 69.3892,59.999 70.0558,61.499 68.5,64C 64.0804,64.7684 59.7471,64.6018 55.5,63.5C 54.3157,62.3121 54.3157,61.1455 55.5,60C 59.1516,59.5014 62.8183,59.3347 66.5,59.5 Z"/></g>
<g><path style="opacity:1" fill="#af716c" d="M 66.5,59.5 C 62.8183,59.3347 59.1516,59.5014 55.5,60C 54.3157,61.1455 54.3157,62.3121 55.5,63.5C 51.5238,61.866 51.5238,60.0327 55.5,58C 59.353,57.8128 63.0196,58.3128 66.5,59.5 Z"/></g>
<g><path style="opacity:1" fill="#928a89" d="M 86.5,50.5 C 86.2962,55.2877 86.2962,59.9544 86.5,64.5C 85.0849,69.5394 84.0849,74.5394 83.5,79.5C 83.6567,78.1266 83.49,76.7932 83,75.5C 82.911,79.0284 82.2444,82.3618 81,85.5C 80.0857,83.3359 78.919,81.3359 77.5,79.5C 76.7568,80.9079 75.9234,82.2412 75,83.5C 74.1859,81.0982 74.3526,78.7649 75.5,76.5C 78.175,75.9766 79.8417,74.9766 80.5,73.5C 81.209,72.596 82.209,72.2627 83.5,72.5C 83.8588,70.2341 83.1922,68.4007 81.5,67C 82.3805,66.2917 83.0472,65.4584 83.5,64.5C 84.9997,60.6742 85.6664,56.6742 85.5,52.5C 85.5,52.1667 85.5,51.8333 85.5,51.5C 85.5,50.8333 85.8333,50.5 86.5,50.5 Z"/></g>
<g><path style="opacity:1" fill="#c89d93" d="M 57.5,76.5 C 61.1667,76.5 64.8333,76.5 68.5,76.5C 68.2155,78.4147 68.5489,80.0813 69.5,81.5C 67.9106,83.3056 65.9106,84.6389 63.5,85.5C 62.7492,86.376 62.2492,87.376 62,88.5C 60.2309,86.3826 58.3976,84.3826 56.5,82.5C 56.7031,80.9557 57.3698,79.6223 58.5,78.5C 58.1373,77.8165 57.8039,77.1499 57.5,76.5 Z"/></g>
<g><path style="opacity:0.41" fill="#131313" d="M 28.5,53.5 C 28.6621,59.5551 28.1621,65.5551 27,71.5C 26.1515,74.6978 24.6515,77.5311 22.5,80C 24.5029,79.5808 26.5029,78.7474 28.5,77.5C 29.7941,83.264 29.4608,88.9307 27.5,94.5C 26.5084,94.3284 25.8417,94.6618 25.5,95.5C 18.389,97.6102 14.0557,102.277 12.5,109.5C 10.9647,113.053 8.96471,116.386 6.5,119.5C 5.00478,119.989 3.67145,120.655 2.5,121.5C 0.895779,122.287 0.229113,123.62 0.5,125.5C 0.166667,125.5 -0.166667,125.5 -0.5,125.5C -0.5,124.167 -0.5,122.833 -0.5,121.5C 6.92082,117.353 11.4208,111.02 13,102.5C 16.3419,97.6407 20.8419,94.6407 26.5,93.5C 27.4625,89.204 27.6292,84.8706 27,80.5C 23.7732,82.9733 20.2732,83.6399 16.5,82.5C 21.3146,79.9036 24.4813,75.9036 26,70.5C 26.5467,66.8396 27.0467,63.173 27.5,59.5C 27.4892,57.9549 27.1558,56.6216 26.5,55.5C 26.8333,54.5 27.5,53.8333 28.5,53.5 Z"/></g>
<g><path style="opacity:1" fill="#646565" d="M 95.5,64.5 C 96.1582,65.7933 96.4915,67.2933 96.5,69C 95.4551,75.529 94.2884,82.029 93,88.5C 93.3354,80.4786 94.1687,72.4786 95.5,64.5 Z"/></g>
<g><path style="opacity:0.005" fill="#131313" d="M 11.5,81.5 C 13.9732,81.9473 14.1399,82.9473 12,84.5C 11.5172,83.552 11.3505,82.552 11.5,81.5 Z"/></g>
<g><path style="opacity:1" fill="#888b8f" d="M 41.5,71.5 C 42.7095,71.9321 43.7095,72.5987 44.5,73.5C 48.1627,75.5948 52.1627,77.0948 56.5,78C 52.0375,80.3003 47.7042,82.8003 43.5,85.5C 42.0621,91.0427 40.0621,96.376 37.5,101.5C 36.675,102.386 35.675,102.719 34.5,102.5C 34.3367,100.143 34.5034,97.8098 35,95.5C 38.4227,87.8067 40.5894,79.8067 41.5,71.5 Z"/></g>
<g><path style="opacity:1" fill="#a6acbb" d="M 56.5,82.5 C 58.3976,84.3826 60.2309,86.3826 62,88.5C 62.2492,87.376 62.7492,86.376 63.5,85.5C 65.9106,84.6389 67.9106,83.3056 69.5,81.5C 70.2389,81.369 70.9056,81.5357 71.5,82C 73.2408,83.6255 74.9075,85.7922 76.5,88.5C 73.6354,88.0548 71.1354,88.7215 69,90.5C 67.6124,89.4464 66.1124,89.2797 64.5,90C 65.3402,91.6665 64.8402,91.8331 63,90.5C 62.8038,92.2861 61.9705,93.6195 60.5,94.5C 58.6061,93.3989 57.9394,92.0655 58.5,90.5C 56.0552,91.9654 54.0552,91.4654 52.5,89C 50.5273,88.5045 48.5273,88.3379 46.5,88.5C 48.1449,84.855 50.8116,82.1884 54.5,80.5C 55.1818,81.2427 55.8485,81.9094 56.5,82.5 Z"/></g>
<g><path style="opacity:1" fill="#5e6065" d="M 80.5,73.5 C 79.8417,74.9766 78.175,75.9766 75.5,76.5C 74.3526,78.7649 74.1859,81.0982 75,83.5C 75.9234,82.2412 76.7568,80.9079 77.5,79.5C 78.919,81.3359 80.0857,83.3359 81,85.5C 82.2444,82.3618 82.911,79.0284 83,75.5C 83.49,76.7932 83.6567,78.1266 83.5,79.5C 83.8846,88.2992 81.8846,96.4659 77.5,104C 80.1957,104.149 82.1957,102.982 83.5,100.5C 85.371,100.141 86.871,99.1412 88,97.5C 87.9827,99.5676 86.9827,101.234 85,102.5C 84.0642,106.114 83.5642,109.78 83.5,113.5C 82.6618,113.158 82.3284,112.492 82.5,111.5C 82.5,109.5 82.5,107.5 82.5,105.5C 79.4752,105.877 76.4752,106.044 73.5,106C 76.9637,102.915 79.2971,99.0818 80.5,94.5C 80.1481,91.783 78.8147,89.783 76.5,88.5C 74.9075,85.7922 73.2408,83.6255 71.5,82C 70.9056,81.5357 70.2389,81.369 69.5,81.5C 68.5489,80.0813 68.2155,78.4147 68.5,76.5C 72.5654,75.7537 76.5654,74.7537 80.5,73.5 Z"/></g>
<g><path style="opacity:0.451" fill="#111212" d="M 103.5,55.5 C 100.878,65.5711 101.045,75.5711 104,85.5C 105.248,88.579 107.081,91.2457 109.5,93.5C 107.157,94.7253 105.323,94.0586 104,91.5C 104.038,96.3247 105.038,100.991 107,105.5C 112.29,109.6 115.123,114.933 115.5,121.5C 115.167,121.5 114.833,121.5 114.5,121.5C 114.606,118.385 113.606,115.719 111.5,113.5C 109.873,111.37 108.04,109.37 106,107.5C 105.506,109.134 105.34,110.801 105.5,112.5C 105.5,113.5 105.5,114.5 105.5,115.5C 105.167,115.5 104.833,115.5 104.5,115.5C 104.666,110.821 104.499,106.155 104,101.5C 102.329,95.4903 100.995,89.4903 100,83.5C 100.667,84.8333 101.333,86.1667 102,87.5C 102.167,87 102.333,86.5 102.5,86C 100.997,81.4724 100.33,76.8057 100.5,72C 100.711,66.8184 101.045,61.6517 101.5,56.5C 102.222,56.0825 102.722,55.4158 103,54.5C 103.399,54.7284 103.565,55.0618 103.5,55.5 Z"/></g>
<g><path style="opacity:1" fill="#dfe8f2" d="M 46.5,88.5 C 48.5273,88.3379 50.5273,88.5045 52.5,89C 54.0552,91.4654 56.0552,91.9654 58.5,90.5C 57.9394,92.0655 58.6061,93.3989 60.5,94.5C 61.9705,93.6195 62.8038,92.2861 63,90.5C 64.8402,91.8331 65.3402,91.6665 64.5,90C 66.1124,89.2797 67.6124,89.4464 69,90.5C 71.1354,88.7215 73.6354,88.0548 76.5,88.5C 78.8147,89.783 80.1481,91.783 80.5,94.5C 79.2971,99.0818 76.9637,102.915 73.5,106C 76.4752,106.044 79.4752,105.877 82.5,105.5C 82.5,107.5 82.5,109.5 82.5,111.5C 81.7487,114.246 80.7487,116.913 79.5,119.5C 74.759,119.265 70.0923,118.598 65.5,117.5C 65.8333,116.167 66.1667,114.833 66.5,113.5C 67.0387,110.958 68.372,108.792 70.5,107C 70.0426,106.586 69.7093,106.086 69.5,105.5C 70.7209,102.238 71.2209,98.9043 71,95.5C 70.2661,97.7358 68.7661,99.0692 66.5,99.5C 64.1071,97.6369 61.4404,96.3035 58.5,95.5C 56.9707,95.5288 55.804,96.1955 55,97.5C 54,96.5 53,95.5 52,94.5C 51.5046,101.08 51.6713,107.413 52.5,113.5C 48.1186,113.628 43.7853,113.295 39.5,112.5C 39.5,113.5 39.5,114.5 39.5,115.5C 36.7006,105.222 39.0339,96.222 46.5,88.5 Z"/></g>
<g><path style="opacity:1" fill="#8e9195" d="M 104.5,115.5 C 104.833,115.5 105.167,115.5 105.5,115.5C 104.404,118.032 103.071,120.365 101.5,122.5C 101.66,120.801 101.494,119.134 101,117.5C 97.2619,119.476 93.7619,121.81 90.5,124.5C 90.1875,118.512 88.6875,112.845 86,107.5C 85.5034,109.81 85.3367,112.143 85.5,114.5C 84.8333,114.167 84.1667,113.833 83.5,113.5C 83.5642,109.78 84.0642,106.114 85,102.5C 86.9827,101.234 87.9827,99.5676 88,97.5C 86.871,99.1412 85.371,100.141 83.5,100.5C 85.5138,97.8057 87.0138,94.8057 88,91.5C 88.6784,86.4279 89.6784,81.4279 91,76.5C 91.4219,81.4027 90.9219,86.2361 89.5,91C 89.6667,91.8333 89.8333,92.6667 90,93.5C 90.6667,92.1667 91.3333,90.8333 92,89.5C 94.3022,98.7586 94.9688,108.092 94,117.5C 94.6667,115.5 95.3333,113.5 96,111.5C 96.3599,113.608 97.0266,115.608 98,117.5C 99.1532,114.289 99.8198,110.956 100,107.5C 101.605,110.191 103.105,112.858 104.5,115.5 Z"/></g>
<g><path style="opacity:1" fill="#6bc9d0" d="M 66.5,113.5 C 66.1667,113.5 65.8333,113.5 65.5,113.5C 60.2242,111.973 58.5576,113.973 60.5,119.5C 61.1667,118.167 61.8333,116.833 62.5,115.5C 63.1757,116.602 63.8423,117.602 64.5,118.5C 63.9162,121.285 64.9162,122.952 67.5,123.5C 69.9424,124.726 72.2758,126.059 74.5,127.5C 69.8333,127.5 65.1667,127.5 60.5,127.5C 59.7998,124.029 57.7998,122.029 54.5,121.5C 54.461,124.089 55.461,126.089 57.5,127.5C 51.8333,127.5 46.1667,127.5 40.5,127.5C 41.3065,126.272 42.3065,125.272 43.5,124.5C 45.5,124.5 47.5,124.5 49.5,124.5C 51.5476,124.84 52.5476,124.507 52.5,123.5C 53.9009,120.366 55.5675,117.366 57.5,114.5C 56.7261,113.289 55.8928,113.289 55,114.5C 52.7539,108.885 53.2539,103.552 56.5,98.5C 58.0983,97.5153 59.765,97.3486 61.5,98C 63.0569,100.296 64.7236,102.462 66.5,104.5C 67.0685,107.412 67.0685,110.412 66.5,113.5 Z"/></g>
<g><path style="opacity:1" fill="#8f929c" d="M 32.5,63.5 C 32.8333,63.5 33.1667,63.5 33.5,63.5C 35.1236,66.7901 37.4569,69.4567 40.5,71.5C 39.8943,79.6221 37.2276,87.1221 32.5,94C 33.4438,96.7191 33.7771,99.5525 33.5,102.5C 32.209,102.263 31.209,102.596 30.5,103.5C 29.5418,105.302 28.8751,107.302 28.5,109.5C 27.6851,110.429 26.8518,111.429 26,112.5C 25.6924,111.692 25.1924,111.025 24.5,110.5C 21.9044,111.482 19.2377,112.149 16.5,112.5C 20.2982,110.816 24.1315,108.816 28,106.5C 28.6667,104.167 28.6667,101.833 28,99.5C 25.9708,101.26 23.8041,102.427 21.5,103C 24.1889,100.78 25.5223,98.2797 25.5,95.5C 25.8417,94.6618 26.5084,94.3284 27.5,94.5C 26.2756,99.4604 27.4423,99.7938 31,95.5C 32.3333,90.8333 33.6667,86.1667 35,81.5C 35.3333,82.8333 35.6667,84.1667 36,85.5C 36.6667,80.1667 36.6667,74.8333 36,69.5C 33.7355,68.0842 32.5688,66.0842 32.5,63.5 Z"/></g>
<g><path style="opacity:1" fill="#4b5259" d="M 40.5,71.5 C 40.8333,71.5 41.1667,71.5 41.5,71.5C 40.5894,79.8067 38.4227,87.8067 35,95.5C 34.5034,97.8098 34.3367,100.143 34.5,102.5C 35.675,102.719 36.675,102.386 37.5,101.5C 40.0621,96.376 42.0621,91.0427 43.5,85.5C 47.7042,82.8003 52.0375,80.3003 56.5,78C 52.1627,77.0948 48.1627,75.5948 44.5,73.5C 48.8035,74.6274 53.1369,75.6274 57.5,76.5C 57.8039,77.1499 58.1373,77.8165 58.5,78.5C 57.3698,79.6223 56.7031,80.9557 56.5,82.5C 55.8485,81.9094 55.1818,81.2427 54.5,80.5C 50.8116,82.1884 48.1449,84.855 46.5,88.5C 39.0339,96.222 36.7006,105.222 39.5,115.5C 39.5,116.5 39.5,117.5 39.5,118.5C 39.5,118.833 39.5,119.167 39.5,119.5C 39.1667,119.5 38.8333,119.5 38.5,119.5C 37.6699,114.193 37.0032,108.859 36.5,103.5C 34.5,103.5 32.5,103.5 30.5,103.5C 31.209,102.596 32.209,102.263 33.5,102.5C 33.7771,99.5525 33.4438,96.7191 32.5,94C 37.2276,87.1221 39.8943,79.6221 40.5,71.5 Z"/></g>
<g><path style="opacity:1" fill="#d5d9df" d="M 25.5,95.5 C 25.5223,98.2797 24.1889,100.78 21.5,103C 23.8041,102.427 25.9708,101.26 28,99.5C 28.6667,101.833 28.6667,104.167 28,106.5C 24.1315,108.816 20.2982,110.816 16.5,112.5C 13.0621,114.983 12.7287,114.316 15.5,110.5C 14.675,109.614 13.675,109.281 12.5,109.5C 14.0557,102.277 18.389,97.6102 25.5,95.5 Z"/></g>
<g><path style="opacity:1" fill="#66c4cb" d="M 30.5,103.5 C 32.5,103.5 34.5,103.5 36.5,103.5C 37.0032,108.859 37.6699,114.193 38.5,119.5C 35.8333,122.167 35.8333,124.833 38.5,127.5C 35.8333,127.5 33.1667,127.5 30.5,127.5C 30.5,126.833 30.5,126.167 30.5,125.5C 31.6231,118.185 31.6231,110.851 30.5,103.5 Z"/></g>
<g><path style="opacity:1" fill="#487586" d="M 30.5,103.5 C 31.6231,110.851 31.6231,118.185 30.5,125.5C 29.8333,124.833 29.1667,124.167 28.5,123.5C 29.5715,119.011 29.5715,114.678 28.5,110.5C 28.5,110.167 28.5,109.833 28.5,109.5C 28.8751,107.302 29.5418,105.302 30.5,103.5 Z"/></g>
<g><path style="opacity:1" fill="#698b98" d="M 66.5,113.5 C 67.0685,110.412 67.0685,107.412 66.5,104.5C 64.7236,102.462 63.0569,100.296 61.5,98C 59.765,97.3486 58.0983,97.5153 56.5,98.5C 53.2539,103.552 52.7539,108.885 55,114.5C 55.8928,113.289 56.7261,113.289 57.5,114.5C 55.5675,117.366 53.9009,120.366 52.5,123.5C 51.7611,123.631 51.0944,123.464 50.5,123C 51.8825,121.729 52.8825,120.229 53.5,118.5C 53.7845,116.585 53.4511,114.919 52.5,113.5C 51.6713,107.413 51.5046,101.08 52,94.5C 53,95.5 54,96.5 55,97.5C 55.804,96.1955 56.9707,95.5288 58.5,95.5C 61.4404,96.3035 64.1071,97.6369 66.5,99.5C 68.7661,99.0692 70.2661,97.7358 71,95.5C 71.2209,98.9043 70.7209,102.238 69.5,105.5C 69.7093,106.086 70.0426,106.586 70.5,107C 68.372,108.792 67.0387,110.958 66.5,113.5 Z"/></g>
<g><path style="opacity:1" fill="#f0fbfa" d="M 65.5,113.5 C 64.6993,115.042 64.366,116.708 64.5,118.5C 63.8423,117.602 63.1757,116.602 62.5,115.5C 61.8333,116.833 61.1667,118.167 60.5,119.5C 58.5576,113.973 60.2242,111.973 65.5,113.5 Z"/></g>
<g><path style="opacity:1" fill="#8d95a7" d="M 111.5,113.5 C 109.379,113.675 107.379,113.341 105.5,112.5C 105.34,110.801 105.506,109.134 106,107.5C 108.04,109.37 109.873,111.37 111.5,113.5 Z"/></g>
<g><path style="opacity:1" fill="#b1b7c3" d="M 28.5,110.5 C 29.5715,114.678 29.5715,119.011 28.5,123.5C 27.0158,125.074 25.3492,126.407 23.5,127.5C 18.5,127.5 13.5,127.5 8.5,127.5C 6.5,126.833 4.5,126.167 2.5,125.5C 9.20528,126.416 15.8719,126.416 22.5,125.5C 24.8953,120.645 26.8953,115.645 28.5,110.5 Z"/></g>
<g><path style="opacity:1" fill="#f9fbfc" d="M 52.5,113.5 C 53.4511,114.919 53.7845,116.585 53.5,118.5C 48.8333,118.5 44.1667,118.5 39.5,118.5C 39.5,117.5 39.5,116.5 39.5,115.5C 39.5,114.5 39.5,113.5 39.5,112.5C 43.7853,113.295 48.1186,113.628 52.5,113.5 Z"/></g>
<g><path style="opacity:1" fill="#f6f8f8" d="M 12.5,109.5 C 13.675,109.281 14.675,109.614 15.5,110.5C 12.7287,114.316 13.0621,114.983 16.5,112.5C 19.2377,112.149 21.9044,111.482 24.5,110.5C 25.1924,111.025 25.6924,111.692 26,112.5C 26.8518,111.429 27.6851,110.429 28.5,109.5C 28.5,109.833 28.5,110.167 28.5,110.5C 26.8953,115.645 24.8953,120.645 22.5,125.5C 15.8719,126.416 9.20528,126.416 2.5,125.5C 1.83333,125.5 1.16667,125.5 0.5,125.5C 0.229113,123.62 0.895779,122.287 2.5,121.5C 8.14451,120.873 13.8112,120.373 19.5,120C 21.9232,119.268 23.0899,117.768 23,115.5C 20.4994,115.95 18.3328,116.95 16.5,118.5C 13.2317,119.487 9.89838,119.82 6.5,119.5C 8.96471,116.386 10.9647,113.053 12.5,109.5 Z"/></g>
<g><path style="opacity:1" fill="#5a606a" d="M 90.5,124.5 C 89.448,124.649 88.448,124.483 87.5,124C 88.6751,120.179 88.5085,116.346 87,112.5C 86.7216,113.416 86.2216,114.082 85.5,114.5C 85.3367,112.143 85.5034,109.81 86,107.5C 88.6875,112.845 90.1875,118.512 90.5,124.5 Z"/></g>
<g><path style="opacity:1" fill="#cedfef" d="M 39.5,119.5 C 39.5,119.167 39.5,118.833 39.5,118.5C 44.1667,118.5 48.8333,118.5 53.5,118.5C 52.8825,120.229 51.8825,121.729 50.5,123C 51.0944,123.464 51.7611,123.631 52.5,123.5C 52.5476,124.507 51.5476,124.84 49.5,124.5C 46.308,122.716 42.9747,121.05 39.5,119.5 Z"/></g>
<g><path style="opacity:1" fill="#324c5c" d="M 83.5,113.5 C 84.1667,113.833 84.8333,114.167 85.5,114.5C 85.2307,118.931 85.564,123.265 86.5,127.5C 85.5,127.5 84.5,127.5 83.5,127.5C 84.7784,122.865 84.7784,118.198 83.5,113.5 Z"/></g>
<g><path style="opacity:1" fill="#b3b7bd" d="M 2.5,121.5 C 3.67145,120.655 5.00478,119.989 6.5,119.5C 9.89838,119.82 13.2317,119.487 16.5,118.5C 18.3328,116.95 20.4994,115.95 23,115.5C 23.0899,117.768 21.9232,119.268 19.5,120C 13.8112,120.373 8.14451,120.873 2.5,121.5 Z"/></g>
<g><path style="opacity:1" fill="#63909f" d="M 65.5,113.5 C 65.8333,113.5 66.1667,113.5 66.5,113.5C 66.1667,114.833 65.8333,116.167 65.5,117.5C 66.7298,119.297 67.3964,121.297 67.5,123.5C 64.9162,122.952 63.9162,121.285 64.5,118.5C 64.366,116.708 64.6993,115.042 65.5,113.5 Z"/></g>
<g><path style="opacity:1" fill="#cbdbed" d="M 65.5,117.5 C 70.0923,118.598 74.759,119.265 79.5,119.5C 78.9423,120.79 77.9423,121.623 76.5,122C 73.4869,122.502 70.4869,123.002 67.5,123.5C 67.3964,121.297 66.7298,119.297 65.5,117.5 Z"/></g>
<g><path style="opacity:1" fill="#5994a4" d="M 82.5,111.5 C 82.3284,112.492 82.6618,113.158 83.5,113.5C 84.7784,118.198 84.7784,122.865 83.5,127.5C 80.5,127.5 77.5,127.5 74.5,127.5C 72.2758,126.059 69.9424,124.726 67.5,123.5C 70.4869,123.002 73.4869,122.502 76.5,122C 77.9423,121.623 78.9423,120.79 79.5,119.5C 80.7487,116.913 81.7487,114.246 82.5,111.5 Z"/></g>
<g><path style="opacity:1" fill="#dce0e4" d="M 105.5,112.5 C 107.379,113.341 109.379,113.675 111.5,113.5C 113.606,115.719 114.606,118.385 114.5,121.5C 114.5,122.5 114.5,123.5 114.5,124.5C 109.99,124.116 105.657,123.449 101.5,122.5C 103.071,120.365 104.404,118.032 105.5,115.5C 105.5,114.5 105.5,113.5 105.5,112.5 Z"/></g>
<g><path style="opacity:1" fill="#748e9d" d="M 39.5,119.5 C 42.9747,121.05 46.308,122.716 49.5,124.5C 47.5,124.5 45.5,124.5 43.5,124.5C 42.5,124.5 41.5,124.5 40.5,124.5C 40.3713,122.784 40.038,121.117 39.5,119.5 Z"/></g>
<g><path style="opacity:1" fill="#eaf8f9" d="M 38.5,119.5 C 38.8333,119.5 39.1667,119.5 39.5,119.5C 40.038,121.117 40.3713,122.784 40.5,124.5C 41.5,124.5 42.5,124.5 43.5,124.5C 42.3065,125.272 41.3065,126.272 40.5,127.5C 39.8333,127.5 39.1667,127.5 38.5,127.5C 35.8333,124.833 35.8333,122.167 38.5,119.5 Z"/></g>
<g><path style="opacity:1" fill="#e5f7f6" d="M 60.5,127.5 C 59.5,127.5 58.5,127.5 57.5,127.5C 55.461,126.089 54.461,124.089 54.5,121.5C 57.7998,122.029 59.7998,124.029 60.5,127.5 Z"/></g>
<g><path style="opacity:1" fill="#b2bac6" d="M 90.5,124.5 C 93.7619,121.81 97.2619,119.476 101,117.5C 101.494,119.134 101.66,120.801 101.5,122.5C 100.833,122.5 100.167,122.5 99.5,122.5C 98.603,121.402 97.7697,121.402 97,122.5C 96.3603,124.265 96.5269,125.932 97.5,127.5C 93.8333,127.5 90.1667,127.5 86.5,127.5C 85.564,123.265 85.2307,118.931 85.5,114.5C 86.2216,114.082 86.7216,113.416 87,112.5C 88.5085,116.346 88.6751,120.179 87.5,124C 88.448,124.483 89.448,124.649 90.5,124.5 Z"/></g>
<g><path style="opacity:1" fill="#f9fcfc" d="M 99.5,122.5 C 99.6107,123.117 99.944,123.617 100.5,124C 104.848,124.573 109.181,125.24 113.5,126C 114.056,126.383 114.389,126.883 114.5,127.5C 108.833,127.5 103.167,127.5 97.5,127.5C 96.5269,125.932 96.3603,124.265 97,122.5C 97.7697,121.402 98.603,121.402 99.5,122.5 Z"/></g>
<g><path style="opacity:1" fill="#75787c" d="M 114.5,121.5 C 114.833,121.5 115.167,121.5 115.5,121.5C 116.461,123.265 116.795,125.265 116.5,127.5C 115.833,127.5 115.167,127.5 114.5,127.5C 114.389,126.883 114.056,126.383 113.5,126C 109.181,125.24 104.848,124.573 100.5,124C 99.944,123.617 99.6107,123.117 99.5,122.5C 100.167,122.5 100.833,122.5 101.5,122.5C 105.657,123.449 109.99,124.116 114.5,124.5C 114.5,123.5 114.5,122.5 114.5,121.5 Z"/></g>
<g><path style="opacity:0.286" fill="#101517" d="M 28.5,123.5 C 29.1667,124.167 29.8333,124.833 30.5,125.5C 30.5,126.167 30.5,126.833 30.5,127.5C 29.8333,127.5 29.1667,127.5 28.5,127.5C 28.1667,126.167 27.8333,126.167 27.5,127.5C 26.1667,127.5 24.8333,127.5 23.5,127.5C 25.3492,126.407 27.0158,125.074 28.5,123.5 Z"/></g>
<g><path style="opacity:0.226" fill="#101012" d="M 0.5,125.5 C 1.16667,125.5 1.83333,125.5 2.5,125.5C 4.5,126.167 6.5,126.833 8.5,127.5C 6.16667,127.5 3.83333,127.5 1.5,127.5C 1.16667,126.833 0.833333,126.167 0.5,125.5 Z"/></g>
</svg>
